<svg xmlns="http://www.w3.org/2000/svg" xmlns:xlink="http://www.w3.org/1999/xlink" style="isolation:isolate" width="512" height="512" viewBox="0 0 512 512"><rect width="407" height="239" x="52.5" y="112" fill="#5D5D5D" stroke="#000" stroke-linecap="square" stroke-linejoin="miter" stroke-miterlimit="3" stroke-width="1" transform="matrix(1,0,0,1,0,0)" vector-effect="non-scaling-stroke"/><path fill="#04E304" stroke="#000" stroke-linecap="square" stroke-linejoin="miter" stroke-miterlimit="3" stroke-width="2" d="M 62 145.5 C 62 133.082 72.754 123 86 123 C 99.246 123 110 133.082 110 145.5 C 110 157.918 99.246 168 86 168 C 72.754 168 62 157.918 62 145.5 Z" vector-effect="non-scaling-stroke"/><path fill="#04E304" stroke="#000" stroke-linecap="square" stroke-linejoin="miter" stroke-miterlimit="3" stroke-width="2" d="M 60 202.5 C 60 190.082 70.754 180 84 180 C 97.246 180 108 190.082 108 202.5 C 108 214.918 97.246 225 84 225 C 70.754 225 60 214.918 60 202.5 Z" vector-effect="non-scaling-stroke"/><path fill="#04E304" stroke="#000" stroke-linecap="square" stroke-linejoin="miter" stroke-miterlimit="3" stroke-width="2" d="M 62 261.5 C 62 249.082 72.754 239 86 239 C 99.246 239 110 249.082 110 261.5 C 110 273.918 99.246 284 86 284 C 72.754 284 62 273.918 62 261.5 Z" vector-effect="non-scaling-stroke"/><path fill="#04E304" stroke="#000" stroke-linecap="square" stroke-linejoin="miter" stroke-miterlimit="3" stroke-width="2" d="M 63 319.5 C 63 307.082 73.754 297 87 297 C 100.246 297 111 307.082 111 319.5 C 111 331.918 100.246 342 87 342 C 73.754 342 63 331.918 63 319.5 Z" vector-effect="non-scaling-stroke"/><path fill="#00D500" stroke="#000" stroke-linecap="square" stroke-linejoin="miter" stroke-miterlimit="3" stroke-width="2" d="M 124 145.5 C 124 133.082 134.754 123 148 123 C 161.246 123 172 133.082 172 145.5 C 172 157.918 161.246 168 148 168 C 134.754 168 124 157.918 124 145.5 Z" vector-effect="non-scaling-stroke"/><path fill="#00D500" stroke="#000" stroke-linecap="square" stroke-linejoin="miter" stroke-miterlimit="3" stroke-width="2" d="M 124 203.5 C 124 191.082 134.754 181 148 181 C 161.246 181 172 191.082 172 203.5 C 172 215.918 161.246 226 148 226 C 134.754 226 124 215.918 124 203.5 Z" vector-effect="non-scaling-stroke"/><path fill="#00D500" stroke="#000" stroke-linecap="square" stroke-linejoin="miter" stroke-miterlimit="3" stroke-width="2" d="M 124 261.5 C 124 249.082 134.754 239 148 239 C 161.246 239 172 249.082 172 261.5 C 172 273.918 161.246 284 148 284 C 134.754 284 124 273.918 124 261.5 Z" vector-effect="non-scaling-stroke"/><path fill="#00D500" stroke="#000" stroke-linecap="square" stroke-linejoin="miter" stroke-miterlimit="3" stroke-width="2" d="M 125 319.5 C 125 307.082 135.754 297 149 297 C 162.246 297 173 307.082 173 319.5 C 173 331.918 162.246 342 149 342 C 135.754 342 125 331.918 125 319.5 Z" vector-effect="non-scaling-stroke"/><path fill="#2CA22C" stroke="#000" stroke-linecap="square" stroke-linejoin="miter" stroke-miterlimit="3" stroke-width="2" d="M 186 145.5 C 186 133.082 196.754 123 210 123 C 223.246 123 234 133.082 234 145.5 C 234 157.918 223.246 168 210 168 C 196.754 168 186 157.918 186 145.5 Z" vector-effect="non-scaling-stroke"/><path fill="#2CA22C" stroke="#000" stroke-linecap="square" stroke-linejoin="miter" stroke-miterlimit="3" stroke-width="2" d="M 186 203.5 C 186 191.082 196.754 181 210 181 C 223.246 181 234 191.082 234 203.5 C 234 215.918 223.246 226 210 226 C 196.754 226 186 215.918 186 203.5 Z" vector-effect="non-scaling-stroke"/><path fill="#2CA22C" stroke="#000" stroke-linecap="square" stroke-linejoin="miter" stroke-miterlimit="3" stroke-width="2" d="M 186 261.5 C 186 249.082 196.754 239 210 239 C 223.246 239 234 249.082 234 261.5 C 234 273.918 223.246 284 210 284 C 196.754 284 186 273.918 186 261.5 Z" vector-effect="non-scaling-stroke"/><path fill="#2CA22C" stroke="#000" stroke-linecap="square" stroke-linejoin="miter" stroke-miterlimit="3" stroke-width="2" d="M 187 319.5 C 187 307.082 197.754 297 211 297 C 224.246 297 235 307.082 235 319.5 C 235 331.918 224.246 342 211 342 C 197.754 342 187 331.918 187 319.5 Z" vector-effect="non-scaling-stroke"/><path fill="#71D071" stroke="#000" stroke-linecap="square" stroke-linejoin="miter" stroke-miterlimit="3" stroke-width="2" d="M 256 145.5 C 256 133.082 266.754 123 280 123 C 293.246 123 304 133.082 304 145.5 C 304 157.918 293.246 168 280 168 C 266.754 168 256 157.918 256 145.5 Z" vector-effect="non-scaling-stroke"/><path fill="#71D071" stroke="#000" stroke-linecap="square" stroke-linejoin="miter" stroke-miterlimit="3" stroke-width="2" d="M 256 203.5 C 256 191.082 266.754 181 280 181 C 293.246 181 304 191.082 304 203.5 C 304 215.918 293.246 226 280 226 C 266.754 226 256 215.918 256 203.5 Z" vector-effect="non-scaling-stroke"/><path fill="#71D071" stroke="#000" stroke-linecap="square" stroke-linejoin="miter" stroke-miterlimit="3" stroke-width="2" d="M 256 261.5 C 256 249.082 266.754 239 280 239 C 293.246 239 304 249.082 304 261.5 C 304 273.918 293.246 284 280 284 C 266.754 284 256 273.918 256 261.5 Z" vector-effect="non-scaling-stroke"/><path fill="#71D071" stroke="#000" stroke-linecap="square" stroke-linejoin="miter" stroke-miterlimit="3" stroke-width="2" d="M 257 319.5 C 257 307.082 267.754 297 281 297 C 294.246 297 305 307.082 305 319.5 C 305 331.918 294.246 342 281 342 C 267.754 342 257 331.918 257 319.5 Z" vector-effect="non-scaling-stroke"/><path fill="#B0CEB0" stroke="#000" stroke-linecap="square" stroke-linejoin="miter" stroke-miterlimit="3" stroke-width="2" d="M 326 145.5 C 326 133.082 336.754 123 350 123 C 363.246 123 374 133.082 374 145.5 C 374 157.918 363.246 168 350 168 C 336.754 168 326 157.918 326 145.5 Z" vector-effect="non-scaling-stroke"/><path fill="#B0CEB0" stroke="#000" stroke-linecap="square" stroke-linejoin="miter" stroke-miterlimit="3" stroke-width="2" d="M 326 203.5 C 326 191.082 336.754 181 350 181 C 363.246 181 374 191.082 374 203.5 C 374 215.918 363.246 226 350 226 C 336.754 226 326 215.918 326 203.5 Z" vector-effect="non-scaling-stroke"/><path fill="#B0CEB0" stroke="#000" stroke-linecap="square" stroke-linejoin="miter" stroke-miterlimit="3" stroke-width="2" d="M 325 260.5 C 325 248.082 335.754 238 349 238 C 362.246 238 373 248.082 373 260.5 C 373 272.918 362.246 283 349 283 C 335.754 283 325 272.918 325 260.5 Z" vector-effect="non-scaling-stroke"/><path fill="#B0CEB0" stroke="#000" stroke-linecap="square" stroke-linejoin="miter" stroke-miterlimit="3" stroke-width="2" d="M 326 319.5 C 326 307.082 336.754 297 350 297 C 363.246 297 374 307.082 374 319.5 C 374 331.918 363.246 342 350 342 C 336.754 342 326 331.918 326 319.5 Z" vector-effect="non-scaling-stroke"/><path fill="#DBEADB" stroke="#000" stroke-linecap="square" stroke-linejoin="miter" stroke-miterlimit="3" stroke-width="2" d="M 396 145.5 C 396 133.082 406.754 123 420 123 C 433.246 123 444 133.082 444 145.5 C 444 157.918 433.246 168 420 168 C 406.754 168 396 157.918 396 145.5 Z" vector-effect="non-scaling-stroke"/><path fill="#DBEADB" stroke="#000" stroke-linecap="square" stroke-linejoin="miter" stroke-miterlimit="3" stroke-width="2" d="M 396 203.5 C 396 191.082 406.754 181 420 181 C 433.246 181 444 191.082 444 203.5 C 444 215.918 433.246 226 420 226 C 406.754 226 396 215.918 396 203.5 Z" vector-effect="non-scaling-stroke"/><path fill="#DBEADB" stroke="#000" stroke-linecap="square" stroke-linejoin="miter" stroke-miterlimit="3" stroke-width="2" d="M 396 261.5 C 396 249.082 406.754 239 420 239 C 433.246 239 444 249.082 444 261.5 C 444 273.918 433.246 284 420 284 C 406.754 284 396 273.918 396 261.5 Z" vector-effect="non-scaling-stroke"/><path fill="#DBEADB" d="M 397 319.5 C 397 307.082 407.754 297 421 297 C 434.246 297 445 307.082 445 319.5 C 445 331.918 434.246 342 421 342 C 407.754 342 397 331.918 397 319.5 Z"/><g style="isolation:isolate"><path fill="none" stroke="#000" stroke-linecap="square" stroke-linejoin="miter" stroke-miterlimit="3" stroke-width="2" d="M 397 319.5 C 397 307.082 407.754 297 421 297 C 434.246 297 445 307.082 445 319.5 C 445 331.918 434.246 342 421 342 C 407.754 342 397 331.918 397 319.5 Z" vector-effect="non-scaling-stroke"/><path fill="none" stroke="#000" stroke-linecap="square" stroke-linejoin="miter" stroke-miterlimit="3" stroke-width="1" d="M 397 319.5 C 397 307.082 407.754 297 421 297 C 434.246 297 445 307.082 445 319.5 C 445 331.918 434.246 342 421 342 C 407.754 342 397 331.918 397 319.5 Z" vector-effect="non-scaling-stroke"/></g></svg>