<?xml version="1.0" standalone="no"?><!-- Generator: Gravit.io --><svg xmlns="http://www.w3.org/2000/svg" xmlns:xlink="http://www.w3.org/1999/xlink" style="isolation:isolate" viewBox="0 0 512 512" width="512" height="512"><path d=" M 80.884 228.794 L 55.987 200.645 L 31.091 172.495 C 22.306 162.562 23.542 147.726 33.85 139.384 L 54.994 122.274 L 76.137 105.164 C 86.445 96.822 94.95 100.815 95.118 114.074 L 95.807 168.421 L 96.497 222.767 C 96.665 236.026 89.669 238.727 80.884 228.794 Z " fill="rgb(27,185,27)"/><path d=" M 116.019 168.028 L 114.493 130.479 L 112.966 92.931 C 112.428 79.681 122.756 68.958 136.016 69 L 163.215 69.086 L 190.414 69.172 C 203.674 69.214 207.748 77.681 199.504 88.068 L 165.718 130.641 L 131.931 173.214 C 123.688 183.601 116.558 181.277 116.019 168.028 Z " fill="rgb(0,0,255)"/><path d=" M 170.545 152.745 L 195.435 124.59 L 220.326 96.435 C 229.109 86.5 243.985 85.911 253.526 95.121 L 273.095 114.011 L 292.665 132.9 C 302.205 142.11 299.284 151.04 286.145 152.83 L 232.291 160.166 L 178.438 167.502 C 165.299 169.292 161.762 162.68 170.545 152.745 Z " fill="rgb(126,2,208)"/><path d=" M 100.645 294.954 L 63.134 292.697 L 25.622 290.439 C 12.385 289.643 2.756 278.288 4.131 265.099 L 6.952 238.047 L 9.772 210.995 C 11.148 197.806 19.981 194.605 29.487 203.851 L 68.446 241.748 L 107.406 279.644 C 116.911 288.89 113.882 295.75 100.645 294.954 Z " fill="rgb(227,227,15)"/><path d=" M 185.824 328.536 L 157.272 352.969 L 128.72 377.403 C 118.645 386.025 103.83 384.546 95.658 374.103 L 78.895 352.684 L 62.133 331.264 C 53.96 320.821 58.091 312.382 71.352 312.431 L 125.702 312.629 L 180.053 312.827 C 193.313 312.875 195.899 319.914 185.824 328.536 Z " fill="rgb(234,123,13)"/><path d=" M 273.034 286.344 L 270.81 323.858 L 268.587 361.372 C 267.802 374.609 256.456 384.249 243.266 382.886 L 216.211 380.089 L 189.156 377.292 C 175.966 375.929 172.757 367.098 181.995 357.584 L 219.857 318.591 L 257.719 279.598 C 266.956 270.084 273.819 273.107 273.034 286.344 Z " fill="rgb(255,0,0)"/><g transform="matrix(1,0,0,1,110.465,192.034)"><text transform="matrix(1,0,0,1,0,59.309)" style="font-family:&quot;Aclonica&quot;;font-weight:400;font-size:72px;font-style:normal;fill:#756363;stroke:none;">KAM-Spec</text></g></svg>