<svg xmlns="http://www.w3.org/2000/svg" xmlns:xlink="http://www.w3.org/1999/xlink" style="isolation:isolate" width="1984.67" height="1952.75" viewBox="0 0 1984.67 1952.75"><defs><clipPath id="_clipPath_lop7Z9ObVC2pafSJaNQxCtCFoQhZCPbG"><rect width="1984.67" height="1952.75"/></clipPath></defs><g clip-path="url(#_clipPath_lop7Z9ObVC2pafSJaNQxCtCFoQhZCPbG)"><clipPath id="_clipPath_jz04tg5fmfrHWI0jradAWWLTFoYj8c12"><path fill="#FFF" d="M 0 -0.002 L 1984.671 -0.002 L 1984.671 1952.75 L 0 1952.75 L 0 -0.002 Z"/></clipPath><g clip-path="url(#_clipPath_jz04tg5fmfrHWI0jradAWWLTFoYj8c12)"><path fill="#CE1F29" d="M 947.827 355.578 L 1122.029 208.422 L 1296.236 61.27 C 1357.693 9.333 1447.531 18.904 1496.728 82.59 L 1597.596 213.207 L 1698.484 343.825 C 1747.676 407.522 1722.269 458.56 1641.805 457.752 L 1312.023 454.443 L 982.239 451.125 C 901.764 450.308 886.358 407.487 947.827 355.578 Z"/><path fill="#F0692A" d="M 504.87 598.411 L 500.141 370.423 L 495.411 142.432 C 493.728 61.985 557.704 -1.806 638.154 0.037 L 803.142 3.847 L 968.141 7.641 C 1048.601 9.5 1072.281 61.363 1021.01 123.39 L 810.905 377.594 L 600.786 631.794 C 549.503 693.822 506.529 678.849 504.87 598.411 Z"/><path fill="#FCD912" d="M 414.832 1095.472 L 234.674 955.676 L 54.517 815.868 C -9.062 766.549 -18.377 676.683 33.682 615.321 L 140.477 489.503 L 247.261 363.661 C 299.337 302.299 354.542 316.537 370.482 395.415 L 435.81 718.676 L 501.138 1041.943 C 517.064 1120.828 478.381 1144.805 414.832 1095.472 Z"/><path fill="#5BB846" d="M 744.451 1478.252 L 522.433 1530.288 L 300.404 1582.312 C 222.069 1600.687 146.367 1551.371 131.439 1472.297 L 100.868 1310.124 L 70.273 1147.945 C 55.358 1068.853 101.165 1034.91 172.501 1072.165 L 464.835 1224.828 L 757.168 1377.501 C 828.498 1414.763 822.786 1459.918 744.451 1478.252 Z"/><path fill="#364E9E" d="M 1249.369 1462.986 L 1150.086 1668.271 L 1050.789 1873.566 C 1015.771 1946.003 929.807 1973.796 858.958 1935.632 L 713.684 1857.335 L 568.393 1779.048 C 497.545 1740.869 499.992 1683.903 573.835 1651.916 L 876.445 1520.799 L 1179.064 1389.696 C 1252.918 1357.715 1284.416 1390.567 1249.369 1462.986 Z"/><path fill="#282560" d="M 1555.255 1060.978 L 1652.316 1267.329 L 1749.362 1473.69 C 1783.62 1546.495 1751.122 1630.796 1676.884 1661.835 L 1524.607 1725.457 L 1372.331 1789.099 C 1298.073 1820.139 1255.343 1782.39 1276.954 1704.87 L 1365.503 1387.184 L 1454.06 1069.499 C 1475.675 991.977 1521.032 988.171 1555.255 1060.978 Z"/><path fill="#331140" d="M 1435.337 570.273 L 1656.784 624.705 L 1878.232 679.151 C 1956.37 698.345 2001.431 776.652 1978.841 853.884 L 1932.446 1012.261 L 1886.077 1170.653 C 1863.464 1247.897 1807.241 1257.349 1760.593 1191.767 L 1569.435 923.025 L 1378.274 654.278 C 1331.632 588.69 1357.22 551.05 1435.337 570.273 Z"/></g><g><text transform="matrix(21.875,0,0,21.875,567.094,621.619) matrix(1,0,0,1,0,15.616)" style="font-family:&quot;UVJWHK+Montserrat-Bold&quot;;font-weight:400;font-size:16px;font-style:normal;fill:#131315;stroke:none">KAM</text></g><g><text transform="matrix(15.312,0,0,15.312,662.451,974.096) matrix(1,0,0,1,0,15.616)" style="font-family:&quot;UVJWHK+Montserrat-Bold&quot;;font-weight:400;font-size:16px;font-style:normal;fill:#131315;stroke:none">SPEC</text></g></g></svg>