<svg xmlns="http://www.w3.org/2000/svg" id="Layer_1" data-name="Layer 1" viewBox="0 0 682 672"><defs><style>.cls-1{fill:#364e9d}.cls-2{fill:#fcd812}.cls-3{fill:#331140}.cls-4{fill:#f0692a}.cls-5{fill:#cd2029}.cls-6{fill:#282661}.cls-7{fill:#5bb847}.cls-8{fill:#141416}.cls-9{fill:#fefefe}</style></defs><title>Logo</title><path d="M649,720c-4.84-1.71-10.13-1.36-14.92-3.4-11.25-4.77-21.54-11.4-32.46-16.82-11.79-5.87-23.22-12.49-34.78-18.81-14.57-8-29.19-15.83-43.64-24-6.26-3.54-10.83-8.79-12.7-16a14.87,14.87,0,0,1,2.87-13.84c4.9-6,11.29-10,18.29-13q25.23-10.95,50.53-21.75c21.32-9.16,42.68-18.25,64-27.45,13.41-5.8,26.67-12,40.16-17.59,20.37-8.47,40.06-18.58,61.08-25.51a24.17,24.17,0,0,1,12.21-.46c6,1.12,9.52,8.52,8.18,15.18-1.82,9.07-6.17,17.06-10.14,25.23-10.9,22.42-21.88,44.8-32.64,67.28-10.48,21.89-20.6,44-31.95,65.43-7.92,15-20.51,23.29-37.58,24.52-.92.06-2-.33-2.49,1Z" class="cls-1" transform="translate(-333 -48)"/><path d="M333,280c4.17-15.48,15.57-26.13,25.35-37.85,8.32-10,16.6-20,25-29.85,6.5-7.67,13.16-15.19,19.68-22.83,4.79-5.62,9.41-11.39,14.21-17,5.56-6.5,12.18-11.49,20.72-13.36,5.49-1.21,13.7,3.69,17.26,9.39,4.92,7.89,5.92,16.87,7.76,25.61,4.35,20.74,8.55,41.52,12.74,62.3,3.83,19,7.53,38.08,11.33,57.11,5.3,26.55,10.68,53.08,16,79.63,1.69,8.49,4.33,16.82,4.05,25.66-.26,8.45-4,14.4-10.43,15.08s-12-2.27-16.85-5.8c-11.41-8.23-22.51-16.91-33.66-25.5q-19.07-14.7-38-29.56Q388.52,357.75,369,342.47c-6.32-5-12.55-10-18.94-14.88-8.6-6.53-13.58-15.26-16.12-25.57-.1-.39-.6-.68-.91-1Z" class="cls-2" transform="translate(-333 -48)"/><path d="M1015,338c-3.66,12.08-7.37,24.14-11,36.24-8,27-15.94,54.05-24.08,81a29.42,29.42,0,0,1-9.56,14.16c-8,6.81-18.6,2.81-24.87-2.45-6.74-5.65-11.11-13.27-16.16-20.27q-28.53-39.65-56.69-79.56c-11.16-15.71-22.19-31.52-33.3-47.26q-18.07-25.62-36.22-51.17a33.44,33.44,0,0,1-5-11.94c-1.89-8,3.64-14.32,12-14.81,8.64-.51,16.82,1.52,25.07,3.6,28.62,7.23,57.22,14.6,86,21.31,20.42,4.76,40.86,9.49,61,15.24,17.31,4.92,27.72,17,32.06,34.41.06.21.51.32.78.48Z" class="cls-3" transform="translate(-333 -48)"/><path d="M596,48c.79,1.68,2.32.94,3.52,1,4.33.1,8.66.14,13,0,18.78-.53,37.51,1.43,56.29,1.19a29.49,29.49,0,0,1,18.76,6.07c5.75,4.53,8.54,13.21,3.65,24.11-3,6.69-8.05,11.89-12.57,17.46q-13.3,16.44-26.83,32.7c-7,8.48-14.15,16.86-21.15,25.35-8.65,10.5-17.17,21.11-25.82,31.6-7.11,8.62-14.38,17.11-21.49,25.72-8.88,10.74-17.45,21.75-26.59,32.26-8.11,9.33-15.09,19.69-24.57,27.77-4.47,3.81-9.17,7.32-15.89,5s-7.81-8.22-9.24-13.87c-1.1-4.33-1-8.81-1.12-13.27-.69-21.92-.33-43.88-1.23-65.77-.65-15.79.42-31.6-.89-47.29-1.2-14.46-.2-28.89-.86-43.31C502,73.79,519.8,51.91,540,48.91c.38-.06.68-.6,1-.91Z" class="cls-4" transform="translate(-333 -48)"/><path d="M882.12,206.09c-34.69-2-73,0-111.22-1.32-32.61-1.13-65.21.08-97.78-1-8.1-.25-16.75,0-23.82-5.72-3.71-3-5.1-6.51-3.83-11.09,2.13-7.66,7.43-13,13.21-17.93,7.34-6.27,14.85-12.35,22.27-18.53,9.94-8.28,19.91-16.53,29.8-24.89,9.53-8,18.92-16.28,28.45-24.33,9.76-8.25,19.7-16.27,29.39-24.6,6.32-5.43,12.32-11.12,19.92-15,20.25-10.22,46.5-3.37,59.91,14.88,13.63,18.54,28.19,36.37,42.28,54.57,9.88,12.77,19.84,25.48,29.35,38.51,4.06,5.56,6.8,12.18,5.79,19.24-1.56,10.91-10.73,14.54-18.39,16.06C900.22,206.46,892.94,205.85,882.12,206.09Z" class="cls-5" transform="translate(-333 -48)"/><path d="M939,574.48c1.41,19.84-13.19,39.08-31.38,45.93-24,9-47.32,19.79-71,29.61-13.68,5.66-26.86,12.71-41.34,16.26s-28.66-3.74-25.28-24.18c3.46-20.94,10.71-40.89,16.11-61.33,6.75-25.58,13.92-51,21-76.54q8.41-30.32,17-60.56c3.22-11.32,6.6-22.59,9.9-33.89a29.36,29.36,0,0,1,5.92-11c6.6-7.55,15-6.05,21.83,2.82,7.26,9.42,10.7,21,16.16,31.44,3.43,6.57,6,13.58,9.18,20.29,9.91,20.91,20,41.74,29.9,62.65,6.43,13.59,12.86,27.18,18.92,40.94C938.38,562.54,939.69,568.67,939,574.48Z" class="cls-6" transform="translate(-333 -48)"/><path d="M355.9,433.7A29,29,0,0,1,358,420.65c2.13-5.2,7.94-9.18,13.5-9.72,11.21-1.09,20.3,4.3,29.58,9.12s18.35,10,27.62,14.85c20.31,10.54,40.72,20.87,61,31.41,22.49,11.66,45.05,23.18,67.29,35.3,14.91,8.12,30.54,14.88,44.77,24.27a24.92,24.92,0,0,1,7.93,8.6c3,5.32.87,11.69-4.45,15.5-7.54,5.4-16.56,6.64-25.15,8.83-14.82,3.78-29.83,6.78-44.73,10.24-29.94,6.94-59.89,13.84-89.77,21.07-6.68,1.62-13.43,3.78-20.13,3.64-12.1-.26-23.28-3.83-32.68-12.35-10.64-9.65-14.41-22.13-16.82-35.59-3.68-20.52-8.23-40.88-11.63-61.45C361.53,467.48,357.11,450.84,355.9,433.7Z" class="cls-7" transform="translate(-333 -48)"/><path d="M710.94,379c-7.37,0-14-.09-20.7.05-2.14.05-3.47-.3-3.54-2.72,0-.42-.6-.81-.66-1.25-1.44-10.42-8-12.3-17.26-11.23-6.58.76-13.32.28-20,.09-2.7-.08-4,.69-4.87,3.39C640.1,379,640,379,627.85,379c-11.16,0-22.33-.12-33.49.09a6.14,6.14,0,0,1-5.88-3.11c-5.78-8.75-11.72-17.39-17.45-26.16-1.64-2.51-2.48-2.61-5-.57-7.87,6.38-9.16,14.7-8,23.87.58,4.63-.65,6.62-5.72,6a70.46,70.46,0,0,0-12-.05c-2.48.1-3.43-.46-3.42-3.23q.18-38.74,0-77.5c0-2.51.53-3.52,3.26-3.38a130.57,130.57,0,0,0,14,0c3.06-.18,3.95.66,3.88,3.81-.22,10.25-.08,20.5-.08,31.62,10.09-11.44,19.57-22.22,29.09-32.95,1.18-1.33,2.34-2.53,4.54-2.48,7.61.18,15.22.07,23.4.07-7,7.89-13.64,15.32-20.27,22.73q-4.78,5.34-9.62,10.62c-.83.9-1.51,1.48-.47,2.89,10.74,14.56,20.31,29.93,30.35,45,.55.83,1.17,2.08,2.14,1.61s1.37-1.66,1.79-2.65q16.17-37.89,32.24-75.82c1.45-3.42,3.47-4.83,7.35-4.45a96.06,96.06,0,0,0,14,0,4,4,0,0,1,4.43,2.74q9.51,22.92,19,45.83C700.89,355.2,705.84,366.88,710.94,379Z" class="cls-8" transform="translate(-333 -48)"/><path d="M765.43,343.92c7.26-15.79,14.48-31.22,21.36-46.81.79-1.79,1.37-2.14,3-2.13,6.5,0,13,.11,19.5,0,2.24-.05,2.78.71,2.77,2.85q-.09,39.24,0,78.48c0,2.26-.74,2.83-2.86,2.76a131.93,131.93,0,0,0-13.49,0c-3.25.23-3.8-1-3.77-3.92.15-15.82.07-31.65.07-48.76-3,6.43-5.52,11.75-7.85,17.17-3.61,8.4-7.07,16.86-10.56,25.31a3.15,3.15,0,0,1-3.25,2.19c-11.05.62-11.26.79-15.81-9.13-5.2-11.35-10-22.9-15.53-35.79V351c0,8.17-.12,16.33.07,24.49.06,2.85-.77,3.72-3.6,3.57-5.29-.29-12.28,1.77-15.45-.87s-.95-10-1-15.24c-.1-21.16.07-42.32-.14-63.48,0-3.84,1-4.79,4.67-4.55a126.91,126.91,0,0,0,15.48,0c3.17-.18,4.74,1.06,6,3.79C751.69,313.68,758.49,328.59,765.43,343.92Z" class="cls-8" transform="translate(-333 -48)"/><path d="M678,435.19c0-8.49.16-17-.08-25.47-.1-3.18.87-3.83,3.88-3.79,12.82.17,25.64.19,38.46,0,3.14-.05,3.86.82,3.82,3.86-.1,8.22.06,8.22-8.38,8.22-6.32,0-12.66.19-19-.08-3.17-.14-4.2.85-3.76,3.88a14.41,14.41,0,0,1,0,4c-.38,2.72.82,3.32,3.34,3.26,7-.15,14,.14,21-.13,3.19-.13,3.82.9,3.79,3.89-.1,8.19,0,8.19-7.9,8.19-5.66,0-11.33.16-17-.07-2.75-.1-3.23.91-3.26,3.4-.12,8.67-.22,8.67,8.4,8.67,6.66,0,13.32.1,20-.05,2.58-.06,3.77.3,3.77,3.39,0,8.66.19,8.66-8.44,8.66-11.49,0-23-.16-34.46.1-3.63.08-4.37-1-4.27-4.44C678.17,452.18,678,443.68,678,435.19Z" class="cls-8" transform="translate(-333 -48)"/><path d="M568.47,444.29c6.44,5.33,13.58,9.14,22.41,8.73,2.73-.12,5.37-.39,6.08-3.61.77-3.51-1.7-5.12-4.39-6.13-5.08-1.93-10.44-2.94-15.5-5.14-7-3.05-11-7.87-11.07-14.91a17.48,17.48,0,0,1,11.25-16.17c11.9-4.15,23.23-2.09,34.13,3.7,1,.53,1.16.55.87,1.83-.84,3.72-3.16,6.69-4.6,10.09-.88,2.07-2.43.42-3.52-.12-5.39-2.69-10.82-5-17.1-4.64-2.46.15-4.31.84-4.93,3.15s1,3.77,3,5c4.9,3,10.63,3.43,15.79,5.74,8.23,3.69,12.39,8.8,12.11,17.11-.23,6.67-5.9,13.78-13.16,15.69-13.21,3.47-25.19.59-36.32-7.26-2-1.42-.61-2.29-.36-2.82C564.78,451,566.67,447.67,568.47,444.29Z" class="cls-8" transform="translate(-333 -48)"/><path d="M621,435.53c0-8.66.11-17.32-.06-26-.06-2.78.66-3.78,3.54-3.6,9.57.6,19.12-.27,28.75.87,13.74,1.63,19.45,14.87,17.35,25.3-2.29,11.45-13.31,16.82-22.49,16.93-3.93,0-9.14-1.78-11.43.81-1.93,2.19-.8,7.28-.59,11.07.18,3.17-.66,4.19-4,4.16-11-.1-11,.06-11-11.07Z" class="cls-8" transform="translate(-333 -48)"/><path d="M786.75,455.43c-5.82,4.4-11.71,8.19-19.12,9.78-15.7,3.35-31.33-5.95-35.53-21.12-4.7-17,5.83-34.06,24.31-37.28,10.86-1.89,19.64,1.37,28.09,7.31,1.46,1,1.53,1.77.52,3.57-2,3.51-5.94,5.28-7.09,9.64-4.8-4.89-9.5-8.9-16.39-8.32a15,15,0,0,0-13.19,9.45c-2.59,6.12-2.29,12.44,2.44,17.81,4.49,5.07,9.78,7.21,16.62,5,3.16-1,6.17-2.06,8.4-4.56,1.21-1.36,2.29-1.82,3.26,0C781,450.2,784.41,452.43,786.75,455.43Z" class="cls-8" transform="translate(-333 -48)"/><path d="M663.79,317.8l11.41,29.89h-23Z" class="cls-9" transform="translate(-333 -48)"/><path d="M636,427.19c0-9.32,0-9.32,9.29-9.19,6.9.1,10.82,3.69,10.71,9.82-.1,5.8-4.08,9.17-10.83,9.18C636,437,636,437,636,427.19Z" class="cls-9" transform="translate(-333 -48)"/></svg>